<svg width="100" height="100" viewBox="0 0 100 100" fill="none" xmlns="http://www.w3.org/2000/svg">
<g clip-path="url(#clip0_58_161)">
<path d="M85 0H15C6.71573 0 0 6.71573 0 15V85C0 93.2843 6.71573 100 15 100H85C93.2843 100 100 93.2843 100 85V15C100 6.71573 93.2843 0 85 0Z" fill="black"/>
<path d="M23.3984 59.2969C26.8359 59.2969 29.5117 56.6406 29.5117 52.6953V37.3633H33.2422V62.2266H29.5508V59.9219C28.7012 60.8011 27.6807 61.4972 26.5522 61.9674C25.4236 62.4376 24.2108 62.672 22.9883 62.6562C17.6562 62.6562 13.5742 58.7891 13.5742 52.9297V37.3828H17.3047V52.7148C17.3047 56.7187 19.9219 59.2969 23.3984 59.2969ZM36.0156 37.3633H39.6094V46.4258C40.4477 45.5722 41.4477 44.8942 42.551 44.4315C43.6543 43.9687 44.8387 43.7304 46.0352 43.7305C48.5449 43.7305 50.9518 44.7274 52.7264 46.5021C54.5011 48.2767 55.4981 50.6836 55.4981 53.1934C55.4981 55.7031 54.5011 58.11 52.7264 59.8846C50.9518 61.6593 48.5449 62.6562 46.0352 62.6562C44.8328 62.6571 43.6423 62.4193 42.5326 61.9566C41.4228 61.4939 40.416 60.8156 39.5703 59.9609V62.2266H36.0156V37.3633ZM45.7812 59.4727C47.0251 59.4804 48.2433 59.119 49.2817 58.4344C50.3202 57.7498 51.1324 56.7726 51.6155 55.6264C52.0986 54.4802 52.231 53.2165 51.9959 51.9951C51.7608 50.7737 51.1688 49.6494 50.2948 48.7644C49.4207 47.8794 48.3039 47.2735 47.0854 47.0232C45.867 46.773 44.6018 46.8897 43.4497 47.3585C42.2976 47.8274 41.3104 48.6273 40.6129 49.6572C39.9154 50.6871 39.539 51.9007 39.5312 53.1445V53.1836C39.5261 54.0044 39.6827 54.8181 39.992 55.5784C40.3014 56.3386 40.7574 57.0305 41.3342 57.6145C41.9109 58.1985 42.597 58.6632 43.3534 58.982C44.1097 59.3008 44.9214 59.4675 45.7422 59.4727H45.7812ZM66.2695 43.75C71.4844 43.75 75.332 47.7539 75.332 53.1641V54.3359H60.6055C60.8243 55.7699 61.5492 57.0782 62.6491 58.024C63.7489 58.9698 65.151 59.4906 66.6016 59.4922C68.6914 59.4922 70.4688 58.6328 71.8164 56.8359L74.4141 58.75C72.5977 61.1719 69.9023 62.6172 66.6016 62.6172C61.1719 62.6172 56.9727 58.5742 56.9727 53.1641C56.9531 48.0469 60.9766 43.75 66.2695 43.75ZM60.6445 51.4844H71.6797C71.0742 48.7109 68.8477 46.875 66.1719 46.875C63.5352 46.875 61.2891 48.7305 60.6445 51.4844ZM84.9414 47.3047C82.5977 47.3047 80.8984 49.1211 80.8984 51.9141V62.207H77.3047V44.1016H80.8594V46.3477C81.7383 44.8828 83.2031 43.9648 85.1953 43.9648H86.4453V47.3047H84.9414Z" fill="white"/>
</g>
<defs>
<clipPath id="clip0_58_161">
<rect width="100" height="100" fill="white"/>
</clipPath>
</defs>
</svg>
